HIERARCHY
ROOT hip
{
  OFFSET 0.0 0.0 0.0
  CHANNELS 6 Xposition Yposition Zposition Zrotation Yrotation Xrotation
  JOINT torso
  {
    OFFSET 0.0 0.0 0.0
    CHANNELS 3 Zrotation Xrotation Yrotation
    JOINT neck
    {
      OFFSET -20.11218299999996 327.95800799999995 66.30578600000035
      CHANNELS 3 Zrotation Xrotation Yrotation
      JOINT head
      {
        OFFSET 18.28939800000012 288.83178699999996 217.81652800000006
        CHANNELS 3 Zrotation Xrotation Yrotation
        End Site
        {
          OFFSET 0.0 0.0 0.0
        }
      }
    }
    JOINT left_collar
    {
      OFFSET -20.11218299999996 327.95800799999995 66.30578600000035
      CHANNELS 3 Zrotation Xrotation Yrotation
      JOINT left_upper_arm
      {
        OFFSET -127.08163400000001 -16.17407199999991 15.44799799999987
        CHANNELS 3 Zrotation Xrotation Yrotation
        JOINT left_forearm
        {
          OFFSET -234.267792 45.78796399999999 109.31286600000021
          CHANNELS 3 Zrotation Xrotation Yrotation
          JOINT left_hand
          {
            OFFSET -259.114014 -33.25433399999997 16.18847699999992
            CHANNELS 3 Zrotation Xrotation Yrotation
            End Site
            {
              OFFSET 0.0 0.0 0.0
            }
          }
        }
      }
    }
    JOINT right_collar
    {
      OFFSET -20.11218299999996 327.95800799999995 66.30578600000035
      CHANNELS 3 Zrotation Xrotation Yrotation
      JOINT right_upper_arm
      {
        OFFSET 164.513184 1.5733030000000099 4.892333999999892
        CHANNELS 3 Zrotation Xrotation Yrotation
        JOINT right_forearm
        {
          OFFSET 260.742027 48.718444999999974 144.35229500000014
          CHANNELS 3 Zrotation Xrotation Yrotation
          JOINT right_hand
          {
            OFFSET 287.85150899999996 -44.57171600000015 13.96813899999961
            CHANNELS 3 Zrotation Xrotation Yrotation
            End Site
            {
              OFFSET 0.0 0.0 0.0
            }
          }
        }
      }
    }
  }
}
MOTION
Frames: 18
Frame Time: 0.01
-269.5483619890611 274.03424663943645 1280.038623480053 5.776936743063776 -9.260769735879348 -12.796528521425904 0.15479157579768224 1.17554607450004 0.04247765832079051 -4.509089392636598 4.252176253344253 3.0578583871074425 0.0 0.0 0.0 2.415036929592693 -1.103161436619321 9.448835710878436 2.4799532718463984 -16.358957001740983 -65.33427386039449 -18.96879724962695 -1.8655634260272191 -17.715167806344514 0.0 0.0 0.0 0.9156805511057019 -0.006856169410143541 -1.1605601223062316 -8.864776642006074 -12.891270890453757 85.01053498179331 21.619221459889708 -1.5798092841989078 15.276195226880619 0.0 0.0 0.0
-269.46145698801536 274.09337210566514 1280.6701471100018 5.7842420406621 -9.230925336884242 -12.784507110702432 0.1521294126725374 1.1694220213500666 0.042604600068421705 -4.502822508308727 4.225852600190593 3.0554510148554974 0.0 0.0 0.0 2.418083089439577 -1.1026797057243631 9.446336209096765 2.482764909794916 -16.356704469737707 -65.33890584792742 -18.96998996066421 -1.8662070972414775 -17.72465463910365 0.0 0.0 0.0 0.9139470334801618 -0.006761929190975216 -1.1639953648016836 -8.869723168302729 -12.873365445162875 85.0049184623672 21.60633035613382 -1.5773433017726501 15.273200444474135 0.0 0.0 0.0
-269.3583861791645 274.15475087780544 1281.3279306115455 5.792406216135566 -9.199817580919435 -12.772510010174715 0.14878486182396028 1.1639098741245555 0.042901576932541104 -4.496347482355104 4.199733518145658 3.0528696510572026 0.0 0.0 0.0 2.420901630203059 -1.1021523361919254 9.443469506954486 2.4861733360069747 -16.35298371708174 -65.3424259239838 -18.9721128747717 -1.867106649926953 -17.73541322587597 0.0 0.0 0.0 0.9115976706521194 -0.006656332989872729 -1.1673976042701077 -8.87438712144911 -12.856184974062861 84.99913007756048 21.59327957417116 -1.5748604181591113 15.270524035420367 0.0 0.0 0.0
-269.23873380392104 274.2177795884116 1282.011979803557 5.801258264062331 -9.167507261352963 -12.760621476098464 0.14484925426383186 1.1590040268537638 0.043350699902649 -4.489783696463037 4.173843228959849 3.050200818052049 0.0 0.0 0.0 2.4234274229920656 -1.1015799864552858 9.440223550824687 2.4901191941928653 -16.347750061140577 -65.34454088293016 -18.97524602307871 -1.868282265635931 -17.747498783808258 0.0 0.0 0.0 0.9086605366436896 -0.006538279915133965 -1.1708641235279484 -8.878779091391 -12.839855637422867 84.99342577711454 21.580281823915467 -1.5724043578138835 15.268302741905108 0.0 0.0 0.0
-269.1021542185437 274.28182540258246 1282.722412354404 5.810604040812511 -9.134048642811226 -12.748914279656715 0.1404276805249995 1.15468451955469 0.04393049733387602 -4.483267957619169 4.148180617335461 3.047546178391913 0.0 0.0 0.0 2.425600834704159 -1.1009642347435638 9.436593857118282 2.494544187995143 -16.34097431700035 -65.34499323763636 -18.979440644073712 -1.8697468339119336 -17.760939987980528 0.0 0.0 0.0 0.9051798490382987 -0.006407041690599627 -1.174489314169814 -8.882925399392265 -12.824466351988937 84.98807651236655 21.56753570266671 -1.570015130457002 15.266644127424916 0.0 0.0 0.0
-268.94838211657265 274.3462348233031 1283.4594538186484 5.8202297309328515 -9.099490725073176 -12.737445985618631 0.13563555313667627 1.1509191031563675 0.044616712133983355 -4.476949602596681 4.122719185218786 3.04501890413924 0.0 0.0 0.0 2.4273677650478063 -1.1003071858637918 9.43258083561531 2.4993932070960185 -16.332641822906744 -65.34356617623807 -18.984718335650356 -1.8715057155338852 -17.775738003676267 0.0 0.0 0.0 0.9012147731912663 -0.0062622404354585656 -1.17836469459336 -8.886866448563861 -12.810067558942336 84.98335826737318 21.55522315121264 -1.567728684145075 15.265629046189012 0.0 0.0 0.0
-268.77724178932925 274.41034385601694 1284.2234316586334 5.82990582786857 -9.063878789171758 -12.726255453967607 0.1305948303993068 1.1476655793485777 0.04538318273936908 -4.470984800149312 4.097407696797447 3.042739389432426 0.0 0.0 0.0 2.4286796258330754 -1.0996110653143025 9.428187017608407 2.5046164693212307 -16.322751074589252 -65.34008779256703 -18.991070802642895 -1.8735566444762919 -17.791865958093204 0.0 0.0 0.0 0.8968374835898236 -0.0061038105902984086 -1.1825789461484293 -8.890654585494739 -12.79667110229857 84.97954152386008 21.543507117933725 -1.5655766456595641 15.265315494759905 0.0 0.0 0.0
-268.5886552535631 274.47348936459565 1285.0147672638257 5.839391537858618 -9.027256148634304 -12.715359746507868 0.1254300180234541 1.1448743384379414 0.04620277962280592 -4.465530268087216 4.072171531799084 3.040830466475509 0.0 0.0 0.0 2.429493354425366 -1.098877828365322 9.423414399156854 2.5101715555523025 -16.311312119003215 -65.33443449879205 -18.99846014868806 -1.8758897615173338 -17.809268949138165 0.0 0.0 0.0 0.8921305352422945 -0.005931947597685333 -1.1872178710732921 -8.894351534592076 -12.784251287992722 84.97688059288745 21.532529420704297 -1.563586130041226 15.265743474681413 0.0 0.0 0.0
-268.3826490575319 274.53502131254777 1285.8339660622153 5.848439488066725 -8.98966602504514 -12.704751597070244 0.12026409041512802 1.1424910068201857 0.04704836361470398 -4.460736646505345 4.046914760706368 3.039412303386184 0.0 0.0 0.0 2.4297715451038604 -1.0981088073040324 9.418262077072866 2.51602519840172 -16.298344877277202 -65.32653351314131 -19.00681970743608 -1.8784877833575724 -17.827864686122442 0.0 0.0 0.0 0.8871836507896229 -0.005747046459190951 -1.1923642119415025 -8.898025495570131 -12.772747149355073 84.9756033113635 21.522408843853857 -1.5617796070030885 15.26694038824157 0.0 0.0 0.0
-268.1593595463225 274.5943154629357 1286.6816058872084 5.856800599979404 -8.951153451401566 -12.694397569189977 0.1152144919039205 1.140459096152113 0.04789372773893407 -4.456741785654784 4.021522940777737 3.038597176311511 0.0 0.0 0.0 2.4294827572427695 -1.0973044151511706 9.41272431563652 2.5221546853070373 -16.28387757038493 -65.31636431977694 -19.016055452639797 -1.8813263202010821 -17.847544816721577 0.0 0.0 0.0 0.8820900883883697 -0.005549634160042599 -1.1980972959795912 -8.901748023026402 -12.762065854549427 84.97590158693563 21.51323954908541 -1.5601748195447516 15.268926458159724 0.0 0.0 0.0
-267.9190363320411 274.65078602616313 1287.558323813546 5.864228982847793 -8.911767082455023 -12.684236987144157 0.110389382990094 1.1387225241248047 0.048714482225999965 -4.45366421820128 3.9958666048725666 3.0384843187045116 0.0 0.0 0.0 2.4286020196069114 -1.0964639195494044 9.40678914087661 2.528548756388927 -16.26794539986784 -65.30395901710592 -19.026048054386475 -1.8843743592745945 -17.868176933499388 0.0 0.0 0.0 0.8769428128502657 -0.005340301029928987 -1.2044924767444638 -8.905590832059048 -12.75208706556584 84.9779231815596 21.505089911108165 -1.558784758696822 15.271719712883838 0.0 0.0 0.0
-267.6620436865943 274.70389770152525 1288.464801713868 5.8704867106304555 -8.87156076729437 -12.674181691780989 0.1058842850256516 1.1372278588135862 0.04948884378442598 -4.4515970911967395 3.969805381351254 3.0391550574496304 0.0 0.0 0.0 2.4271115060290414 -1.0955852966718798 9.400437522313007 2.5352079119583646 -16.250589594398924 -65.28940149755871 -19.036655649963393 -1.8875949305861408 -17.889607199597553 0.0 0.0 0.0 0.8718307310736226 -0.005119636852094082 -1.2116203511013088 -8.909622688088666 -12.74266793976991 84.9817649891213 21.498001903096846 -1.5576177057492286 15.275340194419668 0.0 0.0 0.0
-267.3888595693657 274.75317655203 1289.401750824532 5.875348364522752 -8.830594729927407 -12.664116645250072 0.10177925168868894 1.1359261348937901 0.050198295076939535 -4.450602832677743 3.943192651597678 3.0406684476961194 0.0 0.0 0.0 2.4250013225300346 -1.0946651720200777 9.39364317342892 2.5421440833896325 -16.231856885180918 -65.27282543042105 -19.047717366852996 -1.890945963962544 -17.911663511156068 0.0 0.0 0.0 0.8668352574927436 -0.00488817746742179 -1.2195457411353723 -8.913906536454558 -12.733648402752515 84.98746793909392 21.4919911445108 -1.556677356357738 15.279813185245436 0.0 0.0 0.0
-267.1000720306857 274.79821917834755 1290.3698956488547 5.87860524508298 -8.788936223206498 -12.653901387680754 0.09813666254080745 1.1347741124418724 0.050828088322272175 -4.450708819314172 3.915880627489424 3.0430576138559817 0.0 0.0 0.0 2.4222703267288215 -1.0936988521443243 9.386372978650543 2.549379657257699 -16.21179942848654 -65.25441104594896 -19.059057576685483 -1.8943813341507079 -17.93415912825302 0.0 0.0 0.0 0.8620274406939135 -0.004646366562692231 -1.2283264528077225 -8.918497008019475 -12.724856338771044 84.99501358686602 21.487047683927504 -1.5559630380321021 15.285171372214515 0.0 0.0 0.0
-266.7963727930515 274.83869971811845 1291.3699575618693 5.8800691804539005 -8.746659574459915 -12.643372330672268 0.09499969631775526 1.1337349021116778 0.05136757761256681 -4.451904291442597 3.887725713293596 3.046326990788202 0.0 0.0 0.0 2.4189268955543732 -1.0926804476999734 9.378588029483907 2.5569458764526636 -16.19047515243384 -65.23438074505718 -19.070490791785396 -1.89785207689958 -17.956896736915095 0.0 0.0 0.0 0.8574658140396919 -0.0043945353721799845 -1.2380118574537415 -8.923438407207291 -12.716112431407923 85.00432244528301 21.483137535692258 -1.5554700253302869 15.291455943703447 0.0 0.0 0.0
-266.4785478908163 274.874374296573 1292.4026385030973 5.879575880309281 -8.703845615705559 -12.63234585323178 0.09239150192547498 1.1327779547765437 0.05181037681632289 -4.454138726967461 3.85859400000691 3.0504506348354985 0.0 0.0 0.0 2.414989560968657 -1.0916030834912127 9.370245221692649 2.564880675877029 -16.167948466308403 -65.21299359002205 -19.08182706141448 -1.9013077469443223 -17.979672922835704 0.0 0.0 0.0 0.8531950444957543 -0.0041329005019893 -1.2486413846931441 -8.928763255625983 -12.707234508459772 85.01525414987542 21.48020493760102 -1.555189948791485 15.29871665448674 0.0 0.0 0.0
-266.147465331573 274.9050826952861 1293.4686051479937 5.876987806921516 -8.660580565667056 -12.620622141367907 0.09031504792202588 1.131878489841134 0.05215435176268947 -4.457321834129015 3.82836672179408 3.0553717380062846 0.0 0.0 0.0 2.4104874409643138 -1.0904591853745627 9.361299328490851 2.573226042709658 -16.14429123757528 -65.19053876909295 -19.092877687395443 -1.904697879095957 -18.002283027683166 0.0 0.0 0.0 0.8492453628010993 -0.0038615775680944596 -1.2602430544607814 -8.934491430503357 -12.698041362942714 85.02760958231731 21.478175255934225 -1.5551112866705674 15.307010913899541 0.0 0.0 0.0
-265.8040598296197 274.9307471785875 1294.568473935747 5.872196550488475 -8.61695448546057 -12.607989681315493 0.08875360162093275 1.131016495102269 0.05240146463834809 -4.461325255126219 3.79694548437475 3.0610034302216804 0.0 0.0 0.0 2.405460403421216 -1.0892408274228584 9.35170542346962 2.5820250175429793 -16.1195839176396 -65.16732816378952 -19.103461047270724 -1.9079735040352312 -18.024526327659725 0.0 0.0 0.0 0.8456326825707937 -0.003580606399284072 -1.2728321986645346 -8.940629903278538 -12.688356107091401 85.04113505749393 21.476958436284523 -1.5552199240608318 15.316401976051203 0.0 0.0 0.0
